<?xml version="1.0" standalone="no"?>
<!DOCTYPE svg PUBLIC "-//W3C//DTD SVG 20010904//EN"
 "http://www.w3.org/TR/2001/REC-SVG-20010904/DTD/svg10.dtd">
<svg xmlns="http://www.w3.org/2000/svg" version="1.0" width="400.000000pt" height="380.000000pt" viewBox="0 0 300.000000 280.000000" preserveAspectRatio="xMidYMid meet">

<g fill="#ffffff" stroke="none" transform="translate(-50.000000,280.000000) scale(0.100000,-0.100000)">
<path d="M772 2708 c4 -46 28 -321 53 -613 25 -291 49 -577 55 -635 5 -58 28 -323 50 -590 22 -267 43 -500 48 -519 7 -33 8 -34 132 -71 69 -21 224 -68 345 -105 121 -37 292 -89 380 -115 l160 -49 465 139 c256 77 487 145 514 152 27 7 50 17 52 23 3 9 17 179 74 920 5 66 34 439 65 828 30 390 55 711 55 713 0 2 -553 4 -1228 4 l-1228 0 8 -82z m1406 -473 c150 -36 225 -112 239 -245 8 -85 2 -90 -116 -90 -62 0 -101 4 -109 12 -7 7 -12 29 -12 50 0 51 -23 94 -60 113 -39 20 -217 21 -265 1 -64 -27 -66 -36 -63 -411 l3 -335 49 40 c26 22 58 40 71 40 21 0 95 -68 95 -87 0 -15 -315 -323 -330 -323 -16 0 -320 312 -320 328 0 5 21 28 46 51 45 42 45 42 72 26 15 -10 40 -31 56 -47 16 -16 32 -26 37 -21 4 4 9 166 11 358 l3 350 27 57 c32 69 87 112 161 127 29 6 61 13 72 15 54 10 275 5 333 -9z m294 -575 c177 -178 172 -167 98 -234 -47 -42 -60 -39 -107 19 -52 66 -53 63 -53 -282 0 -241 -4 -335 -15 -387 -30 -140 -94 -187 -283 -207 -190 -21 -370 9 -457 75 -62 47 -114 202 -85 255 10 20 18 21 118 19 l106 -3 8 -40 c27 -139 40 -148 203 -143 129 3 160 17 182 79 18 52 18 669 0 669 -7 0 -32 -20 -54 -45 -51 -57 -71 -53 -134 26 l-30 38 163 160 c90 88 167 161 172 161 4 0 80 -72 168 -160z"/>
</g>
</svg>
