<svg id="visual" viewBox="0 510 900 80" width="900" height="80" xmlns="http://www.w3.org/2000/svg" xmlns:xlink="http://www.w3.org/1999/xlink" version="1.1"><rect x="0" y="0" width="900" height="600" fill="#001C30"></rect><path d="M0 521L21.5 522C43 523 86 525 128.8 524.3C171.7 523.7 214.3 520.3 257.2 522.7C300 525 343 533 385.8 536.5C428.7 540 471.3 539 514.2 533.7C557 528.3 600 518.7 642.8 517.3C685.7 516 728.3 523 771.2 526.8C814 530.7 857 531.3 878.5 531.7L900 532L900 601L878.5 601C857 601 814 601 771.2 601C728.3 601 685.7 601 642.8 601C600 601 557 601 514.2 601C471.3 601 428.7 601 385.8 601C343 601 300 601 257.2 601C214.3 601 171.7 601 128.8 601C86 601 43 601 21.5 601L0 601Z" fill="#052740"></path><path d="M0 563L21.5 557.2C43 551.3 86 539.7 128.8 534.7C171.7 529.7 214.3 531.3 257.2 536C300 540.7 343 548.3 385.8 550.8C428.7 553.3 471.3 550.7 514.2 547.7C557 544.7 600 541.3 642.8 542C685.7 542.7 728.3 547.3 771.2 550.8C814 554.3 857 556.7 878.5 557.8L900 559L900 601L878.5 601C857 601 814 601 771.2 601C728.3 601 685.7 601 642.8 601C600 601 557 601 514.2 601C471.3 601 428.7 601 385.8 601C343 601 300 601 257.2 601C214.3 601 171.7 601 128.8 601C86 601 43 601 21.5 601L0 601Z" fill="#073455"></path><path d="M0 578L21.5 574.2C43 570.3 86 562.7 128.8 559.3C171.7 556 214.3 557 257.2 558.5C300 560 343 562 385.8 564C428.7 566 471.3 568 514.2 567.7C557 567.3 600 564.7 642.8 562.3C685.7 560 728.3 558 771.2 558.5C814 559 857 562 878.5 563.5L900 565L900 601L878.5 601C857 601 814 601 771.2 601C728.3 601 685.7 601 642.8 601C600 601 557 601 514.2 601C471.3 601 428.7 601 385.8 601C343 601 300 601 257.2 601C214.3 601 171.7 601 128.8 601C86 601 43 601 21.5 601L0 601Z" fill="#0b426a"></path></svg>